<?xml version="1.0" standalone="no"?>
<svg xmlns:xlink="http://www.w3.org/1999/xlink" xmlns="http://www.w3.org/2000/svg" id="svg-chart" font-family="Times New Roman" height="508" width="761" style="font-size: 12pt;"><rect id="table-bkgnd" style="fill: rgb(255, 255, 255); stroke: rgb(51, 51, 51);" width="761" height="506"/><text class="column-title" x="6.616666793823242" y="15.333333333333334" font-weight="bold" width="49">Policy</text><text class="column-title" x="70.9416675567627" y="15.333333333333334" font-weight="bold" width="65">Expiry</text><text class="column-title" x="136.77499961853027" y="15.333333333333334" font-weight="bold" width="60">Location</text><text class="column-title" x="207.1666660308838" y="15.333333333333334" font-weight="bold" width="35">State</text><text class="column-title" x="256.5" y="15.333333333333334" font-weight="bold" width="57">Region</text><text class="column-title" x="319.19166564941406" y="15.333333333333334" font-weight="bold" width="92">InsuredValue</text><text class="column-title" x="421.0999984741211" y="15.333333333333334" font-weight="bold" width="90">Construction</text><text class="column-title" x="520.9000015258789" y="15.333333333333334" font-weight="bold" width="92">BusinessType</text><text class="column-title" x="623.0999984741211" y="15.333333333333334" font-weight="bold" width="82">Earthquake</text><text class="column-title" x="714.9416675567627" y="15.333333333333334" font-weight="bold" width="39">Flood</text><rect width="759" height="27" x="1" y="20" style="fill: rgb(255, 255, 255);"/><text width="49" x="02" height="27" y="38">100242</text><text width="65" x="59" height="27" y="38">2-Jan-21</text><text width="60" x="134" height="27" y="38">Urban</text><text width="35" x="204" height="27" y="38">NY</text><text width="57" x="249" height="27" y="38">East</text><text width="92" x="316" height="27" y="38">1,617,630</text><text width="90" x="418" height="27" y="38">Frame</text><text width="92" x="518" height="27" y="38">Retail</text><text width="82" x="620" height="27" y="38">N</text><text width="39" x="712" height="27" y="38">N</text><rect width="759" height="27" x="1" y="47" style="fill: rgb(239, 239, 239);"/><text width="49" x="02" height="27" y="65">100314</text><text width="65" x="59" height="27" y="65">2-Jan-21</text><text width="60" x="134" height="27" y="65">Urban</text><text width="35" x="204" height="27" y="65">NY</text><text width="57" x="249" height="27" y="65">East</text><text width="92" x="316" height="27" y="65">8,678,500</text><text width="90" x="418" height="27" y="65">Resist</text><text width="92" x="518" height="27" y="65">Apartment</text><text width="82" x="620" height="27" y="65">Y</text><text width="39" x="712" height="27" y="65">Y</text><rect width="759" height="27" x="1" y="74" style="fill: rgb(255, 255, 255);"/><text width="49" x="02" height="27" y="92">100359</text><text width="65" x="59" height="27" y="92">2-Jan-21</text><text width="60" x="134" height="27" y="92">Rural</text><text width="35" x="204" height="27" y="92">WI</text><text width="57" x="249" height="27" y="92">Midwest</text><text width="92" x="316" height="27" y="92">2,052,660</text><text width="90" x="418" height="27" y="92">Frame</text><text width="92" x="518" height="27" y="92">Farming</text><text width="82" x="620" height="27" y="92">N</text><text width="39" x="712" height="27" y="92">N</text><rect width="759" height="27" x="1" y="101" style="fill: rgb(239, 239, 239);"/><text width="49" x="02" height="27" y="119">100315</text><text width="65" x="59" height="27" y="119">3-Jan-21</text><text width="60" x="134" height="27" y="119">Urban</text><text width="35" x="204" height="27" y="119">NY</text><text width="57" x="249" height="27" y="119">East</text><text width="92" x="316" height="27" y="119">17,580,000</text><text width="90" x="418" height="27" y="119">Frame</text><text width="92" x="518" height="27" y="119">Apartment</text><text width="82" x="620" height="27" y="119">Y</text><text width="39" x="712" height="27" y="119">Y</text><rect width="759" height="27" x="1" y="128" style="fill: rgb(255, 255, 255);"/><text width="49" x="02" height="27" y="146">100385</text><text width="65" x="59" height="27" y="146">3-Jan-21</text><text width="60" x="134" height="27" y="146">Urban</text><text width="35" x="204" height="27" y="146">NY</text><text width="57" x="249" height="27" y="146">East</text><text width="92" x="316" height="27" y="146">1,925,000</text><text width="90" x="418" height="27" y="146">Masonry</text><text width="92" x="518" height="27" y="146">Hospitality</text><text width="82" x="620" height="27" y="146">N</text><text width="39" x="712" height="27" y="146">N</text><rect width="759" height="27" x="1" y="155" style="fill: rgb(239, 239, 239);"/><text width="49" x="02" height="27" y="173">100388</text><text width="65" x="59" height="27" y="173">4-Jan-21</text><text width="60" x="134" height="27" y="173">Urban</text><text width="35" x="204" height="27" y="173">IL</text><text width="57" x="249" height="27" y="173">Midwest</text><text width="92" x="316" height="27" y="173">12,934,500</text><text width="90" x="418" height="27" y="173">Frame</text><text width="92" x="518" height="27" y="173">Apartment</text><text width="82" x="620" height="27" y="173">Y</text><text width="39" x="712" height="27" y="173">Y</text><rect width="759" height="27" x="1" y="182" style="fill: rgb(255, 255, 255);"/><text width="49" x="02" height="27" y="200">100358</text><text width="65" x="59" height="27" y="200">5-Jan-21</text><text width="60" x="134" height="27" y="200">Urban</text><text width="35" x="204" height="27" y="200">WI</text><text width="57" x="249" height="27" y="200">Midwest</text><text width="92" x="316" height="27" y="200">928,300</text><text width="90" x="418" height="27" y="200">Masonry</text><text width="92" x="518" height="27" y="200">Bldg</text><text width="82" x="620" height="27" y="200">N</text><text width="39" x="712" height="27" y="200">N</text><rect width="759" height="27" x="1" y="209" style="fill: rgb(239, 239, 239);"/><text width="49" x="02" height="27" y="227">100264</text><text width="65" x="59" height="27" y="227">7-Jan-21</text><text width="60" x="134" height="27" y="227">Rural</text><text width="35" x="204" height="27" y="227">NY</text><text width="57" x="249" height="27" y="227">East</text><text width="92" x="316" height="27" y="227">2,219,900</text><text width="90" x="418" height="27" y="227">Frame</text><text width="92" x="518" height="27" y="227">Farming</text><text width="82" x="620" height="27" y="227">N</text><text width="39" x="712" height="27" y="227">N</text><rect width="759" height="27" x="1" y="236" style="fill: rgb(255, 255, 255);"/><text width="49" x="02" height="27" y="254">100265</text><text width="65" x="59" height="27" y="254">7-Jan-21</text><text width="60" x="134" height="27" y="254">Urban</text><text width="35" x="204" height="27" y="254">NY</text><text width="57" x="249" height="27" y="254">East</text><text width="92" x="316" height="27" y="254">14,100,000</text><text width="90" x="418" height="27" y="254">Frame</text><text width="92" x="518" height="27" y="254">Apartment</text><text width="82" x="620" height="27" y="254">Y</text><text width="39" x="712" height="27" y="254">Y</text><rect width="759" height="27" x="1" y="263" style="fill: rgb(239, 239, 239);"/><text width="49" x="02" height="27" y="281">100357</text><text width="65" x="59" height="27" y="281">8-Jan-21</text><text width="60" x="134" height="27" y="281">Urban</text><text width="35" x="204" height="27" y="281">NY</text><text width="57" x="249" height="27" y="281">East</text><text width="92" x="316" height="27" y="281">4,762,808</text><text width="90" x="418" height="27" y="281">Masonry</text><text width="92" x="518" height="27" y="281">Other</text><text width="82" x="620" height="27" y="281">Y</text><text width="39" x="712" height="27" y="281">Y</text><rect width="759" height="27" x="1" y="290" style="fill: rgb(255, 255, 255);"/><text width="49" x="02" height="27" y="308">100399</text><text width="65" x="59" height="27" y="308">8-Jan-21</text><text width="60" x="134" height="27" y="308">Urban</text><text width="35" x="204" height="27" y="308">NY</text><text width="57" x="249" height="27" y="308">East</text><text width="92" x="316" height="27" y="308">13,925,190</text><text width="90" x="418" height="27" y="308">Frame</text><text width="92" x="518" height="27" y="308">Apartment</text><text width="82" x="620" height="27" y="308">Y</text><text width="39" x="712" height="27" y="308">Y</text><rect width="759" height="27" x="1" y="317" style="fill: rgb(239, 239, 239);"/><text width="49" x="02" height="27" y="335">100329</text><text width="65" x="59" height="27" y="335">9-Jan-21</text><text width="60" x="134" height="27" y="335">Urban</text><text width="35" x="204" height="27" y="335">NY</text><text width="57" x="249" height="27" y="335">East</text><text width="92" x="316" height="27" y="335">6,350,000</text><text width="90" x="418" height="27" y="335">Frame</text><text width="92" x="518" height="27" y="335">Apartment</text><text width="82" x="620" height="27" y="335">Y</text><text width="39" x="712" height="27" y="335">Y</text><rect width="759" height="27" x="1" y="344" style="fill: rgb(255, 255, 255);"/><text width="49" x="02" height="27" y="362">100429</text><text width="65" x="59" height="27" y="362">9-Jan-21</text><text width="60" x="134" height="27" y="362">Urban</text><text width="35" x="204" height="27" y="362">WI</text><text width="57" x="249" height="27" y="362">Midwest</text><text width="92" x="316" height="27" y="362">4,036,000</text><text width="90" x="418" height="27" y="362">Masonry</text><text width="92" x="518" height="27" y="362">Medical</text><text width="82" x="620" height="27" y="362">Y</text><text width="39" x="712" height="27" y="362">Y</text><rect width="759" height="27" x="1" y="371" style="fill: rgb(239, 239, 239);"/><text width="49" x="02" height="27" y="389">100441</text><text width="65" x="59" height="27" y="389">10-Jan-21</text><text width="60" x="134" height="27" y="389">Urban</text><text width="35" x="204" height="27" y="389">NJ</text><text width="57" x="249" height="27" y="389">East</text><text width="92" x="316" height="27" y="389">472,800</text><text width="90" x="418" height="27" y="389">Masonry</text><text width="92" x="518" height="27" y="389">Retail</text><text width="82" x="620" height="27" y="389">Y</text><text width="39" x="712" height="27" y="389">Y</text><rect width="759" height="27" x="1" y="398" style="fill: rgb(255, 255, 255);"/><text width="49" x="02" height="27" y="416">100442</text><text width="65" x="59" height="27" y="416">10-Jan-21</text><text width="60" x="134" height="27" y="416">Urban</text><text width="35" x="204" height="27" y="416">WI</text><text width="57" x="249" height="27" y="416">Midwest</text><text width="92" x="316" height="27" y="416">11,710,880</text><text width="90" x="418" height="27" y="416">Masonry</text><text width="92" x="518" height="27" y="416">Apartment</text><text width="82" x="620" height="27" y="416">Y</text><text width="39" x="712" height="27" y="416">Y</text><rect width="759" height="27" x="1" y="425" style="fill: rgb(239, 239, 239);"/><text width="49" x="02" height="27" y="443">100372</text><text width="65" x="59" height="27" y="443">12-Jan-21</text><text width="60" x="134" height="27" y="443">Urban</text><text width="35" x="204" height="27" y="443">NY</text><text width="57" x="249" height="27" y="443">East</text><text width="92" x="316" height="27" y="443">1,370,300</text><text width="90" x="418" height="27" y="443">Frame</text><text width="92" x="518" height="27" y="443">Apartment</text><text width="82" x="620" height="27" y="443">Y</text><text width="39" x="712" height="27" y="443">Y</text><rect width="759" height="27" x="1" y="452" style="fill: rgb(255, 255, 255);"/><text width="49" x="02" height="27" y="470">100281</text><text width="65" x="59" height="27" y="470">13-Jan-21</text><text width="60" x="134" height="27" y="470">Rural</text><text width="35" x="204" height="27" y="470">WI</text><text width="57" x="249" height="27" y="470">Midwest</text><text width="92" x="316" height="27" y="470">1,432,835</text><text width="90" x="418" height="27" y="470">Frame</text><text width="92" x="518" height="27" y="470">Farming</text><text width="82" x="620" height="27" y="470">N</text><text width="39" x="712" height="27" y="470">N</text><rect width="759" height="27" x="1" y="479" style="fill: rgb(239, 239, 239);"/><text width="49" x="02" height="27" y="497">100280</text><text width="65" x="59" height="27" y="497">15-Jan-21</text><text width="60" x="134" height="27" y="497">Urban</text><text width="35" x="204" height="27" y="497">NY</text><text width="57" x="249" height="27" y="497">East</text><text width="92" x="316" height="27" y="497">82,000</text><text width="90" x="418" height="27" y="497">Masonry</text><text width="92" x="518" height="27" y="497">Organization</text><text width="82" x="620" height="27" y="497">Y</text><text width="39" x="712" height="27" y="497">Y</text><line x1="57" y1="0" x2="57" y2="506" style="stroke: rgb(51, 51, 51); stroke-width: 1px;"/><line x1="132" y1="0" x2="132" y2="506" style="stroke: rgb(51, 51, 51); stroke-width: 1px;"/><line x1="202" y1="0" x2="202" y2="506" style="stroke: rgb(51, 51, 51); stroke-width: 1px;"/><line x1="247" y1="0" x2="247" y2="506" style="stroke: rgb(51, 51, 51); stroke-width: 1px;"/><line x1="314" y1="0" x2="314" y2="506" style="stroke: rgb(51, 51, 51); stroke-width: 1px;"/><line x1="416" y1="0" x2="416" y2="506" style="stroke: rgb(51, 51, 51); stroke-width: 1px;"/><line x1="516" y1="0" x2="516" y2="506" style="stroke: rgb(51, 51, 51); stroke-width: 1px;"/><line x1="618" y1="0" x2="618" y2="506" style="stroke: rgb(51, 51, 51); stroke-width: 1px;"/><line x1="710" y1="0" x2="710" y2="506" style="stroke: rgb(51, 51, 51); stroke-width: 1px;"/></svg>